<mxfile host="app.diagrams.net" agent="Mozilla/5.0 (X11; Linux x86_64) AppleWebKit/537.36 (KHTML, like Gecko) Chrome/131.0.0.0 Safari/537.36" version="26.0.16">
  <diagram name="Page-1" id="R-Bk7HiEYPjcZSy-zCCp">
    <mxGraphModel dx="821" dy="531" grid="1" gridSize="10" guides="1" tooltips="1" connect="1" arrows="1" fold="1" page="1" pageScale="1" pageWidth="850" pageHeight="1100" math="1" shadow="0">
      <root>
        <mxCell id="0" />
        <mxCell id="1" parent="0" />
        <mxCell id="uWN1kHdDD6uzO15zqvKS-1" value="" style="endArrow=classic;startArrow=classic;html=1;rounded=0;strokeWidth=3;" edge="1" parent="1">
          <mxGeometry width="50" height="50" relative="1" as="geometry">
            <mxPoint x="360" y="520" as="sourcePoint" />
            <mxPoint x="360" y="120" as="targetPoint" />
          </mxGeometry>
        </mxCell>
        <mxCell id="uWN1kHdDD6uzO15zqvKS-2" value="" style="endArrow=classic;startArrow=classic;html=1;rounded=0;strokeWidth=3;" edge="1" parent="1">
          <mxGeometry width="50" height="50" relative="1" as="geometry">
            <mxPoint x="160" y="320" as="sourcePoint" />
            <mxPoint x="560" y="320" as="targetPoint" />
          </mxGeometry>
        </mxCell>
        <mxCell id="uWN1kHdDD6uzO15zqvKS-4" value="" style="endArrow=classic;startArrow=none;html=1;rounded=0;startFill=0;fillColor=#60a917;strokeColor=#2D7600;strokeWidth=2;" edge="1" parent="1">
          <mxGeometry width="50" height="50" relative="1" as="geometry">
            <mxPoint x="360" y="320" as="sourcePoint" />
            <mxPoint x="590" y="190" as="targetPoint" />
          </mxGeometry>
        </mxCell>
        <mxCell id="uWN1kHdDD6uzO15zqvKS-5" value="" style="endArrow=classic;dashed=1;html=1;rounded=0;endFill=1;fillColor=#e51400;strokeColor=#B20000;strokeWidth=2;" edge="1" parent="1">
          <mxGeometry width="50" height="50" relative="1" as="geometry">
            <mxPoint x="360" y="320" as="sourcePoint" />
            <mxPoint x="440" y="160" as="targetPoint" />
          </mxGeometry>
        </mxCell>
        <mxCell id="uWN1kHdDD6uzO15zqvKS-6" value="" style="endArrow=none;dashed=1;html=1;rounded=0;fillColor=#6a00ff;strokeColor=#3700CC;strokeWidth=2;" edge="1" parent="1">
          <mxGeometry width="50" height="50" relative="1" as="geometry">
            <mxPoint x="500" y="240" as="sourcePoint" />
            <mxPoint x="440" y="160" as="targetPoint" />
          </mxGeometry>
        </mxCell>
        <mxCell id="uWN1kHdDD6uzO15zqvKS-7" value="" style="ellipse;whiteSpace=wrap;html=1;aspect=fixed;fillColor=none;rotation=-165;fontColor=#ffffff;strokeColor=#B20000;" vertex="1" parent="1">
          <mxGeometry x="434.13" y="155" width="10" height="10" as="geometry" />
        </mxCell>
        <mxCell id="uWN1kHdDD6uzO15zqvKS-9" value="" style="ellipse;whiteSpace=wrap;html=1;aspect=fixed;fillColor=none;rotation=-165;fontColor=#ffffff;strokeColor=#B20000;" vertex="1" parent="1">
          <mxGeometry x="320" y="280" width="10" height="10" as="geometry" />
        </mxCell>
        <mxCell id="uWN1kHdDD6uzO15zqvKS-10" value="" style="ellipse;whiteSpace=wrap;html=1;aspect=fixed;fillColor=none;rotation=-165;fontColor=#ffffff;strokeColor=#B20000;" vertex="1" parent="1">
          <mxGeometry x="320" y="360" width="10" height="10" as="geometry" />
        </mxCell>
        <mxCell id="uWN1kHdDD6uzO15zqvKS-11" value="" style="ellipse;whiteSpace=wrap;html=1;aspect=fixed;fillColor=none;rotation=-165;fontColor=#ffffff;strokeColor=#B20000;" vertex="1" parent="1">
          <mxGeometry x="210" y="370" width="10" height="10" as="geometry" />
        </mxCell>
        <mxCell id="uWN1kHdDD6uzO15zqvKS-12" value="" style="ellipse;whiteSpace=wrap;html=1;aspect=fixed;fillColor=none;rotation=-165;fontColor=#ffffff;strokeColor=#B20000;" vertex="1" parent="1">
          <mxGeometry x="200" y="420" width="10" height="10" as="geometry" />
        </mxCell>
        <mxCell id="uWN1kHdDD6uzO15zqvKS-13" value="" style="ellipse;whiteSpace=wrap;html=1;aspect=fixed;fillColor=none;rotation=-165;fontColor=#ffffff;strokeColor=#B20000;" vertex="1" parent="1">
          <mxGeometry x="265" y="440" width="10" height="10" as="geometry" />
        </mxCell>
        <mxCell id="uWN1kHdDD6uzO15zqvKS-16" value="&lt;font style=&quot;font-size: 24px;&quot;&gt;$$x^{(i)}$$&lt;/font&gt;" style="text;html=1;align=center;verticalAlign=middle;whiteSpace=wrap;rounded=0;" vertex="1" parent="1">
          <mxGeometry x="425" y="120" width="60" height="30" as="geometry" />
        </mxCell>
        <mxCell id="uWN1kHdDD6uzO15zqvKS-17" value="&lt;font style=&quot;font-size: 24px;&quot;&gt;$$b_1$$&lt;/font&gt;" style="text;html=1;align=center;verticalAlign=middle;whiteSpace=wrap;rounded=0;" vertex="1" parent="1">
          <mxGeometry x="560" y="155" width="60" height="30" as="geometry" />
        </mxCell>
      </root>
    </mxGraphModel>
  </diagram>
</mxfile>
